# xmcd
#
# Track frame offsets:
#	150
#	13839
#	40411
#	56446
#	75555
#	93597
#	112519
#	129456
#	149063
#	166550
#	191452
#	208747
#	229794
#	247366
#	268870
#	288272
#	306972
#	324559
#
# Disc length: 4482
#
# Revision: 2
# Processed by: cddbd v1.5.1PL0 Copyright (c) Steve Scherf et al.
# Submitted via: EasyCDDAExtractor 7.1.0.1
# Normalized: r1:DSETVAR1
#
DISCID=02118012
DTITLE=Various Artist - Fetenhits - The Ballads CD 1
DYEAR=1900
DGENRE=
TTITLE0=QUEEN - We are the Champions
TTITLE1=JOHN MILES - Music
TTITLE2=MARILLION - Kayleigh
TTITLE3=BILLY IDOL - Sweet Sixteen
TTITLE4=TINA TURNER - Private Dancer
TTITLE5=SLADE - My o My
TTITLE6=ALPHAVILLE - Forever Young
TTITLE7=ICEHOUSE - Hey little Girl
TTITLE8=DEN HARROW - Don´t break my Heart
TTITLE9=TOTO - Rosanna
TTITLE10=ABBA - Thank You for the Music
TTITLE11=MR. MISTER - Broken Wings
TTITLE12=COCK ROBIN - The Promise you made
TTITLE13=ALLANAH MYLES - Black Velvet
TTITLE14=ROXETTE - It must have been Love
TTITLE15=GARY MOORE - Still got the Blues for You
TTITLE16=THE BANGLES - Eternal Flame
TTITLE17=THOM PACE - Maybe
EXTD=
EXTT0=
EXTT1=
EXTT2=
EXTT3=
EXTT4=
EXTT5=
EXTT6=
EXTT7=
EXTT8=
EXTT9=
EXTT10=
EXTT11=
EXTT12=
EXTT13=
EXTT14=
EXTT15=
EXTT16=
EXTT17=
PLAYORDER=
